<?xml version="1.0" encoding="UTF-8" standalone="no"?>
<svg width="79px" height="67px" viewBox="0 0 79 67" version="1.1" xmlns="http://www.w3.org/2000/svg" xmlns:xlink="http://www.w3.org/1999/xlink">
    <!-- Generator: Sketch 3.7.2 (28276) - http://www.bohemiancoding.com/sketch -->
    <title>Group 4</title>
    <desc>Created with Sketch.</desc>
    <defs>
        <filter x="-50%" y="-50%" width="200%" height="200%" filterUnits="objectBoundingBox" id="filter-1">
            <feOffset dx="0" dy="2" in="SourceAlpha" result="shadowOffsetOuter1"></feOffset>
            <feGaussianBlur stdDeviation="2" in="shadowOffsetOuter1" result="shadowBlurOuter1"></feGaussianBlur>
            <feColorMatrix values="0 0 0 0 0   0 0 0 0 0   0 0 0 0 0  0 0 0 0.266247736 0" type="matrix" in="shadowBlurOuter1" result="shadowMatrixOuter1"></feColorMatrix>
            <feMerge>
                <feMergeNode in="shadowMatrixOuter1"></feMergeNode>
                <feMergeNode in="SourceGraphic"></feMergeNode>
            </feMerge>
        </filter>
    </defs>
    <g id="Page-1" stroke="none" stroke-width="1" fill="none" fill-rule="evenodd">
        <g id="Artboard-1" transform="translate(-331.000000, -112.000000)">
            <g id="Group-5-Copy" transform="translate(332.000000, 112.000000)">
                <g id="Group-4">
                    <g id="Group-3">
                        <polygon id="Rectangle-7" fill="#FFFFFF" transform="translate(28.350792, 41.221973) rotate(24.000000) translate(-28.350792, -41.221973) " points="4.02871462 26.6408716 39.2768097 26.6408716 52.6728694 55.8030731 17.1715362 55.803074"></polygon>
                        <g id="Page-1" transform="translate(10.162747, 0.366908)">
                            <path d="M23.3521213,7.49229313 C23.5623931,7.5983925 23.6870399,7.66572479 23.8148084,7.72534901 C33.4048078,12.2073673 42.9939153,16.6911992 52.5917191,21.1557609 C52.8354381,21.2691149 53.2176289,21.2673012 53.4626858,21.1553075 C56.6595753,19.6932672 59.8433088,18.2019816 63.0297181,16.7159103 C63.1670749,16.651752 63.2948434,16.5660563 63.4741208,16.4635843 C63.2640719,16.3572582 63.1180189,16.2779104 62.9677292,16.2076309 C53.3940074,11.7360412 43.8189478,7.26694532 34.2487938,2.78696746 C33.9495523,2.64686188 33.720996,2.64799542 33.4242072,2.78764758 C30.3434913,4.23653876 27.2554169,5.66933366 24.1695724,7.10711615 C23.9213937,7.22273725 23.6741069,7.34062544 23.3521213,7.49229313 L23.3521213,7.49229313 Z M45.5709155,24.7973724 C45.3597518,24.6865121 45.2208341,24.6062575 45.076119,24.5384718 C35.5088637,20.0675622 25.9420544,15.594839 16.3667718,11.1418394 C16.1237217,11.0287121 15.740639,11.0332462 15.496251,11.1463736 C11.8692297,12.8267337 8.25469545,14.5342987 4.63815434,16.2375563 C4.50102056,16.3021681 4.37392095,16.3883172 4.19419766,16.4923762 C4.37681972,16.5807923 4.49254725,16.6388296 4.60983565,16.6936929 C14.2277078,21.1881801 23.844688,25.6842543 33.4694725,30.163552 C33.6799673,30.2617166 34.013994,30.2521949 34.2276105,30.1531234 C37.8196236,28.4863658 41.4013796,26.7978442 44.9849194,25.1120431 C45.1626359,25.0283879 45.332325,24.9259158 45.5709155,24.7973724 L45.5709155,24.7973724 Z M47.4015957,26.8681237 C47.1743773,26.9628877 47.0216348,27.0204715 46.8740209,27.0893908 C43.218012,28.7985428 39.5653478,30.5156296 35.9024265,32.2100456 C35.4896873,32.4011605 35.3487628,32.6290021 35.3494317,33.0939803 C35.3639255,42.9358304 35.3603578,52.7774537 35.3603578,62.6193038 L35.3603578,63.2967075 C35.6430987,63.1758721 35.8460121,63.0974311 36.0420131,63.0042541 C45.5501782,58.4839222 55.0565594,53.9595095 64.5700761,49.4509665 C64.9578414,49.2671062 65.0628658,49.0456125 65.0624198,48.6366311 C65.0526086,38.776191 65.0548384,28.9155242 65.0532776,19.0548573 C65.0532776,18.8601151 65.0314253,18.6651462 65.0160396,18.4100996 C64.7870373,18.5057704 64.6331799,18.5617673 64.4864579,18.6329536 C61.356463,20.1516709 58.2307047,21.6794565 55.0933514,23.1820775 C54.7352427,23.353242 54.6195152,23.5457172 54.621522,23.9401892 C54.6380227,27.0002945 54.634455,30.0603998 54.6226369,33.1207319 C54.621745,33.3469865 54.5715741,33.6231169 54.4395689,33.7906542 C53.3833043,35.131859 52.2960453,36.4478993 51.2319763,37.7825296 C50.9855815,38.0919861 50.7666134,38.1309799 50.429465,37.9187811 C49.5457883,37.3631197 48.6471718,36.8314893 47.7443187,36.3084738 C47.4907884,36.161567 47.3895547,36.0042316 47.3915615,35.6900143 C47.4082852,32.969971 47.4013727,30.2497011 47.4015957,27.5296578 L47.4015957,26.8681237 Z M2.47344744,18.3665717 C2.46118344,18.5406835 2.45114926,18.6154971 2.45114926,18.6900841 C2.45048032,28.7212354 2.45226417,38.7523867 2.44178403,48.7833112 C2.44133807,49.1313081 2.57423519,49.2739075 2.8614357,49.4067584 C12.7223579,53.9626835 22.5794895,58.52677 32.4379589,63.0876827 C32.5779915,63.1525212 32.7289501,63.1933286 32.9439045,63.2699559 L32.9439045,62.627692 C32.9439045,52.7665718 32.9401139,42.9056782 32.9554996,33.044558 C32.9561685,32.5872878 32.7978515,32.3889183 32.4107552,32.210499 C23.7804692,28.229959 15.1557579,24.2367233 6.53015454,20.2457547 C5.20029135,19.6304691 3.87087411,19.0138232 2.47344744,18.3665717 L2.47344744,18.3665717 Z M0.0449531222,16.5603886 C0.0433922499,15.9206185 0.345086567,15.5340812 0.86574897,15.2899167 C10.3302096,10.8536935 19.7966772,6.42223111 29.2626987,1.98986194 C30.4752735,1.42195826 31.7023421,0.882619798 32.8950715,0.273681964 C33.5718212,-0.0720478198 34.160716,-0.0584453365 34.8472768,0.266880722 C45.3862866,5.25876538 55.9348846,10.2309264 66.4812527,15.2071682 C66.6154877,15.2708732 66.7606489,15.3173483 66.8837348,15.3982831 C67.2697162,15.6521961 67.7083213,15.8723297 67.4842247,16.4921495 C67.4237966,16.6590066 67.4715147,16.8664445 67.4715147,17.0552923 C67.4712917,27.8785615 67.4630414,38.7018308 67.4855626,49.5248733 C67.4875694,50.4809012 67.1836453,51.0281744 66.2986307,51.4405564 C55.7799122,56.3424379 45.2768025,61.278099 34.7759227,66.219201 C34.1352961,66.5207227 33.561787,66.5268438 32.9274039,66.2294029 C22.3025461,61.2461331 11.6741207,56.2705715 1.04368841,51.2995439 C0.358911436,50.9794322 0.0409394506,50.496544 0.0433922499,49.7100938 C0.0603388635,44.1945135 0.0523115202,38.6789332 0.0523115202,33.1635797 C0.0523115202,27.6291827 0.0578860641,22.0947856 0.0449531222,16.5603886 Z" id="Fill-4" fill="#303030"></path>
                            <path d="M47.4014842,27.5296125 C47.4012612,30.2498824 47.4081737,32.9699257 47.39145,35.6899689 C47.3894432,36.0041863 47.4906769,36.1615217 47.7442072,36.3086552 C48.6472833,36.831444 50.7369163,36.0303945 52.1957062,35.2912472 C55.314302,33.7111006 54.6218565,33.3469412 54.6227484,33.1206865 C54.6345664,30.0605812 54.6379112,27.0002492 54.6216335,23.9401439 C54.6194037,23.5456718 54.7353542,23.3534234 55.0932399,23.1820321 C58.2305932,21.6794111 61.3565745,20.1518523 64.4863464,18.6329083 C64.6330684,18.561722 64.7871488,18.5057251 65.0159281,18.4100543 C65.0313139,18.6651008 65.0531661,18.8600698 65.0531661,19.054812 C65.0549499,28.9154788 65.0524971,38.7761457 65.0623083,48.6368125 C65.0627543,49.0455671 64.9577299,49.2670609 64.5699646,49.4509211 C55.0564479,53.9594642 45.5500667,58.4838768 36.0421246,63.0044355 C35.8461236,63.0976125 35.6432102,63.1758267 35.3602464,63.2968888 L35.3602464,62.6192585 C35.3602464,52.7774084 35.364037,42.935785 35.3493202,33.093935 C35.3486513,32.6289568 35.4895758,32.4011152 35.902538,32.2100003 C39.5652363,30.5155843 43.2179005,28.7987242 46.8741324,27.0893454 C47.0217463,27.0204262 47.1742658,26.9628424 47.4014842,26.8680784 L47.4014842,27.5296125 Z" id="Fill-8" fill="#FFFFFF"></path>
                            <path d="M45.570804,24.7973724 C45.3324365,24.9259158 45.1627474,25.0283879 44.9848079,25.1120431 C41.4014911,26.7978442 37.8195121,28.4863658 34.227722,30.1531234 C34.0141055,30.2521949 33.6800788,30.2617166 33.4693611,30.163552 C23.8445765,25.6842543 14.2278193,21.1881801 4.60994714,16.6936929 C4.49265874,16.6388296 4.37670823,16.5807923 4.19408617,16.4923762 C4.37380946,16.3883172 4.50113205,16.3021681 4.63826583,16.2375563 C8.25480694,14.5342987 11.8693412,12.8267337 15.4961395,11.1463736 C15.7405275,11.0332462 16.1236102,11.0287121 16.3666603,11.1418394 C25.9421659,15.594839 35.5087522,20.0675622 45.0760075,24.5384718 C45.2209456,24.6062575 45.3598632,24.6865121 45.570804,24.7973724" id="Fill-10" fill="#FFFFFF"></path>
                            <path d="M23.3521213,7.49229313 C23.6741069,7.34062544 23.9213937,7.22273725 24.1695724,7.10711615 C27.2554169,5.66933366 30.3434913,4.23653876 33.4242072,2.78764758 C33.720996,2.64799542 33.9495523,2.64686188 34.2487938,2.78696746 C43.8189478,7.26694532 53.3940074,11.7360412 62.9677292,16.2076309 C63.1180189,16.2779104 63.2640719,16.3572582 63.4741208,16.4635843 C63.2948434,16.5660563 63.1670749,16.651752 63.0297181,16.7159103 C59.8433088,18.2019816 56.6595753,19.6932672 53.4626858,21.1553075 C53.2176289,21.2673012 52.8354381,21.2691149 52.5917191,21.1557609 C42.9939153,16.6911992 33.4048078,12.2073673 23.8148084,7.72534901 C23.6870399,7.66572479 23.5623931,7.5983925 23.3521213,7.49229313" id="Fill-12" fill="#FFFFFF"></path>
                        </g>
                    </g>
                    <g id="Group-2" filter="url(#filter-1)" transform="translate(2.905353, 41.110151)" fill="#FFCC2F">
                        <ellipse id="Oval-1" cx="8.92589271" cy="8.99574145" rx="8.92589271" ry="8.99574145"></ellipse>
                    </g>
                </g>
            </g>
        </g>
    </g>
</svg>